<svg width="111" height="110" viewBox="0 0 111 110" fill="none" xmlns="http://www.w3.org/2000/svg">
<path d="M105.189 85.0706C86.3428 115.287 18.4954 119.082 3.41814 90.6922C-11.6591 62.3029 26.034 1.87019 59.9577 0.0431506C93.8814 -1.78389 124.036 54.8542 105.189 85.0706Z" fill="#8A3FFC"/>
<path d="M34.5852 63H39.3153C42.4091 63 43.6875 61.4915 43.6875 59.5227C43.6875 57.4517 42.2557 56.3267 41.054 56.25V56.1222C42.179 55.8153 43.1761 55.0739 43.1761 53.3864C43.1761 51.4688 41.8977 49.9091 39.1619 49.9091H34.5852V63ZM36.1705 61.5938V57.0426H39.392C41.1051 57.0426 42.179 58.1932 42.179 59.5227C42.179 60.6733 41.3864 61.5938 39.3153 61.5938H36.1705ZM36.1705 55.6619V51.3153H39.1619C40.9006 51.3153 41.6676 52.2358 41.6676 53.3864C41.6676 54.767 40.5426 55.6619 39.1108 55.6619H36.1705ZM48.9769 63.2301C50.69 63.2301 51.5849 62.3097 51.8917 61.6705H51.9684V63H53.4769V56.5312C53.4769 53.4119 51.0991 53.054 49.8462 53.054C48.3633 53.054 46.6758 53.5653 45.9087 55.3551L47.3406 55.8665C47.6729 55.1506 48.4592 54.3835 49.8974 54.3835C51.2844 54.3835 51.9684 55.1186 51.9684 56.3778V56.429C51.9684 57.1577 51.2269 57.0938 49.4371 57.3239C47.6154 57.5604 45.6275 57.9631 45.6275 60.2131C45.6275 62.1307 47.1104 63.2301 48.9769 63.2301ZM49.207 61.875C48.0053 61.875 47.136 61.3381 47.136 60.2898C47.136 59.1392 48.1843 58.7812 49.3604 58.6278C49.9996 58.5511 51.7127 58.3722 51.9684 58.0653V59.446C51.9684 60.6733 50.9968 61.875 49.207 61.875ZM63.1848 55.3807C62.7118 53.9872 61.6507 53.054 59.7076 53.054C57.6365 53.054 56.1025 54.2301 56.1025 55.892C56.1025 57.2472 56.9078 58.1548 58.7104 58.5767L60.3468 58.9602C61.3375 59.1903 61.8042 59.6634 61.8042 60.3409C61.8042 61.1847 60.9093 61.875 59.503 61.875C58.2694 61.875 57.4959 61.3445 57.2275 60.2898L55.7956 60.6477C56.1472 62.3161 57.5215 63.2045 59.5286 63.2045C61.8105 63.2045 63.3638 61.9581 63.3638 60.2642C63.3638 58.8963 62.5073 58.0334 60.7559 57.6051L59.2985 57.2472C58.1351 56.9595 57.611 56.5696 57.611 55.8153C57.611 54.9716 58.5059 54.358 59.7076 54.358C61.0243 54.358 61.5676 55.0866 61.8297 55.7642L63.1848 55.3807ZM65.6346 63H67.1431V53.1818H65.6346V63ZM66.4016 51.5455C66.9897 51.5455 67.4755 51.0852 67.4755 50.5227C67.4755 49.9602 66.9897 49.5 66.4016 49.5C65.8136 49.5 65.3278 49.9602 65.3278 50.5227C65.3278 51.0852 65.8136 51.5455 66.4016 51.5455ZM73.8947 63.2045C76.068 63.2045 77.4998 61.875 77.7555 60.1364H76.247C75.9657 61.2102 75.0708 61.8494 73.8947 61.8494C72.1049 61.8494 70.9544 60.3665 70.9544 58.0909C70.9544 55.8665 72.1305 54.4091 73.8947 54.4091C75.2243 54.4091 76.0169 55.2273 76.247 56.1222H77.7555C77.4998 54.2812 75.9402 53.054 73.8691 53.054C71.21 53.054 69.4458 55.1506 69.4458 58.142C69.4458 61.0824 71.1333 63.2045 73.8947 63.2045Z" fill="white"/>
</svg>
