<svg width="111" height="110" viewBox="0 0 111 110" fill="none" xmlns="http://www.w3.org/2000/svg">
<path d="M105.189 85.0706C86.3428 115.287 18.4954 119.082 3.41814 90.6922C-11.6591 62.3029 26.034 1.87019 59.9577 0.0431506C93.8814 -1.78389 124.036 54.8542 105.189 85.0706Z" fill="#8A3FFC"/>
<path d="M13.5852 62H21.5881V60.5938H15.1705V56.1449H21.0767V54.7386H15.1705V50.3153H21.4858V48.9091H13.5852V62ZM25.647 56.0938C25.647 54.3807 26.7081 53.4091 28.1527 53.4091C29.5526 53.4091 30.4027 54.3232 30.4027 55.8636V62H31.9112V55.7614C31.9112 53.2557 30.5753 52.054 28.5874 52.054C27.1044 52.054 26.1839 52.7188 25.7237 53.7159H25.5959V52.1818H24.1385V62H25.647V56.0938ZM38.9377 52.1818H36.8411V49.8295H35.3326V52.1818H33.8496V53.4602H35.3326V59.5966C35.3326 61.3097 36.7132 62.1278 37.9917 62.1278C38.5542 62.1278 38.9121 62.0256 39.1167 61.9489L38.8098 60.5938C38.682 60.6193 38.4775 60.6705 38.1451 60.6705C37.4803 60.6705 36.8411 60.4659 36.8411 59.1875V53.4602H38.9377V52.1818ZM45.2179 62.2045C47.2122 62.2045 48.6696 61.2074 49.1298 59.7244L47.6724 59.3153C47.2889 60.3381 46.4004 60.8494 45.2179 60.8494C43.4473 60.8494 42.2264 59.7053 42.1561 57.6023H49.2832V56.9631C49.2832 53.3068 47.1099 52.054 45.0645 52.054C42.4054 52.054 40.6412 54.1506 40.6412 57.1676C40.6412 60.1847 42.3798 62.2045 45.2179 62.2045ZM42.1561 56.2983C42.2583 54.7706 43.3386 53.4091 45.0645 53.4091C46.7008 53.4091 47.7491 54.6364 47.7491 56.2983H42.1561ZM51.5779 62H53.0865V55.7869C53.0865 54.4574 54.1348 53.4858 55.5666 53.4858C55.9693 53.4858 56.3848 53.5625 56.487 53.5881V52.054C56.3145 52.0412 55.9181 52.0284 55.6944 52.0284C54.5183 52.0284 53.4956 52.6932 53.1376 53.6648H53.0353V52.1818H51.5779V62ZM58.2752 65.6818H59.7837V60.4915H59.9116C60.244 61.0284 60.8832 62.2045 62.7752 62.2045C65.2298 62.2045 66.9428 60.2358 66.9428 57.1165C66.9428 54.0227 65.2298 52.054 62.7496 52.054C60.832 52.054 60.244 53.2301 59.9116 53.7415H59.7326V52.1818H58.2752V65.6818ZM59.7582 57.0909C59.7582 54.892 60.7298 53.4091 62.5707 53.4091C64.4883 53.4091 65.4343 55.0199 65.4343 57.0909C65.4343 59.1875 64.4627 60.8494 62.5707 60.8494C60.7553 60.8494 59.7582 59.3153 59.7582 57.0909ZM69.244 62H70.7525V55.7869C70.7525 54.4574 71.8008 53.4858 73.2326 53.4858C73.6353 53.4858 74.0508 53.5625 74.1531 53.5881V52.054C73.9805 52.0412 73.5842 52.0284 73.3604 52.0284C72.1843 52.0284 71.1616 52.6932 70.8036 53.6648H70.7013V52.1818H69.244V62ZM75.9412 62H77.4498V52.1818H75.9412V62ZM76.7083 50.5455C77.2963 50.5455 77.7821 50.0852 77.7821 49.5227C77.7821 48.9602 77.2963 48.5 76.7083 48.5C76.1202 48.5 75.6344 48.9602 75.6344 49.5227C75.6344 50.0852 76.1202 50.5455 76.7083 50.5455ZM87.1673 54.3807C86.6942 52.9872 85.6332 52.054 83.69 52.054C81.619 52.054 80.0849 53.2301 80.0849 54.892C80.0849 56.2472 80.8903 57.1548 82.6928 57.5767L84.3292 57.9602C85.32 58.1903 85.7866 58.6634 85.7866 59.3409C85.7866 60.1847 84.8917 60.875 83.4854 60.875C82.2518 60.875 81.4783 60.3445 81.2099 59.2898L79.7781 59.6477C80.1296 61.3161 81.5039 62.2045 83.511 62.2045C85.793 62.2045 87.3462 60.9581 87.3462 59.2642C87.3462 57.8963 86.4897 57.0334 84.7383 56.6051L83.2809 56.2472C82.1175 55.9595 81.5934 55.5696 81.5934 54.8153C81.5934 53.9716 82.4883 53.358 83.69 53.358C85.0067 53.358 85.5501 54.0866 85.8121 54.7642L87.1673 54.3807ZM93.7335 62.2045C95.7278 62.2045 97.1852 61.2074 97.6454 59.7244L96.188 59.3153C95.8045 60.3381 94.916 60.8494 93.7335 60.8494C91.9629 60.8494 90.742 59.7053 90.6717 57.6023H97.7988V56.9631C97.7988 53.3068 95.6255 52.054 93.5801 52.054C90.921 52.054 89.1568 54.1506 89.1568 57.1676C89.1568 60.1847 90.8954 62.2045 93.7335 62.2045ZM90.6717 56.2983C90.774 54.7706 91.8542 53.4091 93.5801 53.4091C95.2164 53.4091 96.2647 54.6364 96.2647 56.2983H90.6717Z" fill="white"/>
</svg>
