<svg width="111" height="110" viewBox="0 0 111 110" fill="none" xmlns="http://www.w3.org/2000/svg">
<path d="M105.189 85.0706C86.3428 115.287 18.4954 119.082 3.41814 90.6922C-11.6591 62.3029 26.034 1.87019 59.9577 0.0431506C93.8814 -1.78389 124.036 54.8542 105.189 85.0706Z" fill="#8A3FFC"/>
<path d="M32.7443 52.1818H34.2784C34.2081 50.2067 32.3864 48.7301 29.8551 48.7301C27.3494 48.7301 25.3807 50.1875 25.3807 52.3864C25.3807 54.1506 26.6591 55.1989 28.7045 55.7869L30.3153 56.2472C31.696 56.6307 32.9233 57.1165 32.9233 58.4205C32.9233 59.8523 31.5426 60.7983 29.7273 60.7983C28.1676 60.7983 26.7869 60.108 26.6591 58.625H25.0227C25.1761 60.7727 26.9148 62.2301 29.7273 62.2301C32.7443 62.2301 34.4574 60.5682 34.4574 58.446C34.4574 55.9915 32.1307 55.1989 30.7756 54.8409L29.446 54.483C28.4744 54.2273 26.9148 53.7159 26.9148 52.3097C26.9148 51.0568 28.0653 50.1364 29.804 50.1364C31.3892 50.1364 32.5909 50.8906 32.7443 52.1818ZM41.1291 52.1818H39.0325V49.8295H37.524V52.1818H36.041V53.4602H37.524V59.5966C37.524 61.3097 38.9047 62.1278 40.1831 62.1278C40.7456 62.1278 41.1035 62.0256 41.3081 61.9489L41.0012 60.5938C40.8734 60.6193 40.6689 60.6705 40.3365 60.6705C39.6717 60.6705 39.0325 60.4659 39.0325 59.1875V53.4602H41.1291V52.1818ZM46.2875 62.2301C48.0005 62.2301 48.8954 61.3097 49.2022 60.6705H49.2789V62H50.7875V55.5312C50.7875 52.4119 48.4096 52.054 47.1568 52.054C45.6738 52.054 43.9863 52.5653 43.2193 54.3551L44.6511 54.8665C44.9835 54.1506 45.7697 53.3835 47.2079 53.3835C48.595 53.3835 49.2789 54.1186 49.2789 55.3778V55.429C49.2789 56.1577 48.5375 56.0938 46.7477 56.3239C44.926 56.5604 42.938 56.9631 42.938 59.2131C42.938 61.1307 44.421 62.2301 46.2875 62.2301ZM46.5176 60.875C45.3159 60.875 44.4466 60.3381 44.4466 59.2898C44.4466 58.1392 45.4949 57.7812 46.671 57.6278C47.3102 57.5511 49.0233 57.3722 49.2789 57.0653V58.446C49.2789 59.6733 48.3074 60.875 46.5176 60.875ZM53.5408 62H55.0494V55.7869C55.0494 54.4574 56.0977 53.4858 57.5295 53.4858C57.9322 53.4858 58.3477 53.5625 58.4499 53.5881V52.054C58.2773 52.0412 57.881 52.0284 57.6573 52.0284C56.4812 52.0284 55.4585 52.6932 55.1005 53.6648H54.9982V52.1818H53.5408V62ZM65.1232 52.1818H63.0266V49.8295H61.5181V52.1818H60.0352V53.4602H61.5181V59.5966C61.5181 61.3097 62.8988 62.1278 64.1772 62.1278C64.7397 62.1278 65.0977 62.0256 65.3022 61.9489L64.9954 60.5938C64.8675 60.6193 64.663 60.6705 64.3306 60.6705C63.6658 60.6705 63.0266 60.4659 63.0266 59.1875V53.4602H65.1232V52.1818ZM73.5799 57.9858C73.5799 59.8267 72.1737 60.6705 71.0487 60.6705C69.7958 60.6705 68.9009 59.75 68.9009 58.3182V52.1818H67.3924V58.4205C67.3924 60.9261 68.7219 62.1278 70.5629 62.1278C72.0458 62.1278 73.0174 61.3352 73.4776 60.3381H73.5799V62H75.0884V52.1818H73.5799V57.9858ZM77.8514 65.6818H79.3599V60.4915H79.4877C79.8201 61.0284 80.4593 62.2045 82.3514 62.2045C84.8059 62.2045 86.519 60.2358 86.519 57.1165C86.519 54.0227 84.8059 52.054 82.3258 52.054C80.4082 52.054 79.8201 53.2301 79.4877 53.7415H79.3088V52.1818H77.8514V65.6818ZM79.3343 57.0909C79.3343 54.892 80.3059 53.4091 82.1468 53.4091C84.0645 53.4091 85.0105 55.0199 85.0105 57.0909C85.0105 59.1875 84.0389 60.8494 82.1468 60.8494C80.3315 60.8494 79.3343 59.3153 79.3343 57.0909Z" fill="white"/>
</svg>
